<?xml version="1.0" encoding="UTF-8"?>
<svg xmlns="http://www.w3.org/2000/svg" width="680" height="260" viewBox="0 0 680 260" role="img">
  <title>Graph examples showing local structure reveals function</title>
  <defs>
    <linearGradient id="nodeBlue" x1="0" y1="0" x2="1" y2="1">
      <stop offset="0%" stop-color="#3b82f6"/>
      <stop offset="100%" stop-color="#1d4ed8"/>
    </linearGradient>
    <linearGradient id="nodeGreen" x1="0" y1="0" x2="1" y2="1">
      <stop offset="0%" stop-color="#22c55e"/>
      <stop offset="100%" stop-color="#16a34a"/>
    </linearGradient>
    <linearGradient id="nodeYellow" x1="0" y1="0" x2="1" y2="1">
      <stop offset="0%" stop-color="#fbbf24"/>
      <stop offset="100%" stop-color="#d97706"/>
    </linearGradient>
    <linearGradient id="nodePurple" x1="0" y1="0" x2="1" y2="1">
      <stop offset="0%" stop-color="#a855f7"/>
      <stop offset="100%" stop-color="#7c3aed"/>
    </linearGradient>
    <filter id="shadow" x="-20%" y="-20%" width="140%" height="140%">
      <feDropShadow dx="1" dy="1" stdDeviation="2" flood-opacity="0.15"/>
    </filter>
  </defs>

  <!-- Graph 1: Hub Pattern (Social Influencer) -->
  <g transform="translate(20, 35)" filter="url(#shadow)">
    <text x="100" y="0" text-anchor="middle" font-family="Arial" font-size="13" font-weight="bold" fill="#1e293b">Hub Pattern</text>
    <text x="100" y="15" text-anchor="middle" font-family="Arial" font-size="10" fill="#64748b">Social Influencer</text>
    
    <!-- Outer nodes -->
    <circle cx="40" cy="60" r="14" fill="url(#nodeBlue)"/>
    <circle cx="160" cy="60" r="14" fill="url(#nodeBlue)"/>
    <circle cx="30" cy="120" r="14" fill="url(#nodeBlue)"/>
    <circle cx="170" cy="120" r="14" fill="url(#nodeBlue)"/>
    <circle cx="50" cy="170" r="14" fill="url(#nodeBlue)"/>
    <circle cx="150" cy="170" r="14" fill="url(#nodeBlue)"/>
    <circle cx="100" cy="190" r="12" fill="url(#nodeBlue)"/>
    
    <!-- Edges to center -->
    <g stroke="#94a3b8" stroke-width="1.5">
      <line x1="54" y1="65" x2="85" y2="105"/>
      <line x1="146" y1="65" x2="115" y2="105"/>
      <line x1="44" y1="115" x2="85" y2="115"/>
      <line x1="156" y1="115" x2="115" y2="115"/>
      <line x1="60" y1="160" x2="90" y2="130"/>
      <line x1="140" y1="160" x2="110" y2="130"/>
      <line x1="100" y1="178" x2="100" y2="135"/>
    </g>
    
    <!-- Center hub (highlighted) -->
    <circle cx="100" cy="115" r="22" fill="url(#nodeYellow)" stroke="#d97706" stroke-width="2"/>
    <text x="100" y="120" text-anchor="middle" font-family="Arial" font-size="11" fill="#1e293b" font-weight="bold">H</text>
  </g>

  <!-- Graph 2: Bridge Pattern -->
  <g transform="translate(240, 35)" filter="url(#shadow)">
    <text x="100" y="0" text-anchor="middle" font-family="Arial" font-size="13" font-weight="bold" fill="#1e293b">Bridge Pattern</text>
    <text x="100" y="15" text-anchor="middle" font-family="Arial" font-size="10" fill="#64748b">Community Connector</text>
    
    <!-- Left community -->
    <circle cx="30" cy="80" r="14" fill="url(#nodeBlue)"/>
    <circle cx="50" cy="130" r="14" fill="url(#nodeBlue)"/>
    <circle cx="25" cy="165" r="14" fill="url(#nodeBlue)"/>
    <line x1="35" y1="94" x2="45" y2="116" stroke="#94a3b8" stroke-width="1.5"/>
    <line x1="30" y1="94" x2="30" y2="151" stroke="#94a3b8" stroke-width="1.5"/>
    <line x1="39" y1="157" x2="45" y2="140" stroke="#94a3b8" stroke-width="1.5"/>
    
    <!-- Right community -->
    <circle cx="170" cy="80" r="14" fill="url(#nodeGreen)"/>
    <circle cx="150" cy="130" r="14" fill="url(#nodeGreen)"/>
    <circle cx="175" cy="165" r="14" fill="url(#nodeGreen)"/>
    <line x1="165" y1="94" x2="155" y2="116" stroke="#94a3b8" stroke-width="1.5"/>
    <line x1="170" y1="94" x2="170" y2="151" stroke="#94a3b8" stroke-width="1.5"/>
    <line x1="161" y1="157" x2="155" y2="140" stroke="#94a3b8" stroke-width="1.5"/>
    
    <!-- Bridge edges -->
    <line x1="64" y1="130" x2="80" y2="120" stroke="#f59e0b" stroke-width="2"/>
    <line x1="120" y1="120" x2="136" y2="130" stroke="#f59e0b" stroke-width="2"/>
    
    <!-- Bridge node -->
    <circle cx="100" cy="115" r="20" fill="url(#nodeYellow)" stroke="#d97706" stroke-width="2"/>
    <text x="100" y="120" text-anchor="middle" font-family="Arial" font-size="11" fill="#1e293b" font-weight="bold">B</text>
  </g>

  <!-- Graph 3: Chain/Sequence Pattern -->
  <g transform="translate(460, 35)" filter="url(#shadow)">
    <text x="100" y="0" text-anchor="middle" font-family="Arial" font-size="13" font-weight="bold" fill="#1e293b">Chain Pattern</text>
    <text x="100" y="15" text-anchor="middle" font-family="Arial" font-size="10" fill="#64748b">Sequential Flow</text>
    
    <!-- Chain nodes -->
    <circle cx="25" cy="120" r="14" fill="url(#nodePurple)"/>
    <text x="25" y="125" text-anchor="middle" font-family="Arial" font-size="10" fill="white">1</text>
    
    <circle cx="65" cy="90" r="14" fill="url(#nodePurple)"/>
    <text x="65" y="95" text-anchor="middle" font-family="Arial" font-size="10" fill="white">2</text>
    
    <circle cx="105" cy="120" r="18" fill="url(#nodeYellow)" stroke="#d97706" stroke-width="2"/>
    <text x="105" y="125" text-anchor="middle" font-family="Arial" font-size="11" fill="#1e293b" font-weight="bold">3</text>
    
    <circle cx="145" cy="90" r="14" fill="url(#nodePurple)"/>
    <text x="145" y="95" text-anchor="middle" font-family="Arial" font-size="10" fill="white">4</text>
    
    <circle cx="185" cy="120" r="14" fill="url(#nodePurple)"/>
    <text x="185" y="125" text-anchor="middle" font-family="Arial" font-size="10" fill="white">5</text>
    
    <!-- Chain edges -->
    <g stroke="#94a3b8" stroke-width="1.5">
      <line x1="38" y1="112" x2="52" y2="98"/>
      <line x1="78" y1="95" x2="88" y2="110"/>
      <line x1="122" y1="110" x2="132" y2="98"/>
      <line x1="158" y1="98" x2="172" y2="112"/>
    </g>
    
    <!-- Arrow showing flow -->
    <path d="M30 160 L180 160" stroke="#64748b" stroke-width="1" stroke-dasharray="4,2" fill="none"/>
    <polygon points="180,160 172,156 172,164" fill="#64748b"/>
    <text x="105" y="180" text-anchor="middle" font-family="Arial" font-size="9" fill="#64748b">information flow</text>
  </g>

  <!-- Bottom insight box -->
  <rect x="140" y="220" width="400" height="32" rx="6" fill="#f0fdf4" stroke="#22c55e" stroke-width="1.5"/>
  <text x="340" y="241" text-anchor="middle" font-family="Arial" font-size="12" fill="#166534" font-weight="bold">
    Local neighborhood structure reveals node's role in the graph!
  </text>
</svg>
